<svg xmlns="http://www.w3.org/2000/svg" xmlns:xlink="http://www.w3.org/1999/xlink" version="1.1" x="0px" y="0px" viewBox="0 0 512 512" style="enable-background:new 0 0 512 512;" xml:space="preserve"><g><g><g><path d="M256,490c-62.503,0-121.266-24.34-165.463-68.537C46.34,377.268,22,318.504,22,256     c0-62.503,24.34-121.266,68.537-165.463C134.734,46.34,193.497,22,256,22c62.504,0,121.267,24.34,165.463,68.537     C465.66,134.734,490,193.497,490,256c0,62.504-24.34,121.268-68.537,165.463C377.267,465.66,318.504,490,256,490z M256,30     C131.383,30,30,131.383,30,256s101.383,226,226,226s226-101.383,226-226S380.617,30,256,30z" stroke="black" stroke-width="20"/></g><g><path d="M256,360c-57.346,0-104-46.654-104-104c0-57.346,46.654-104,104-104c57.346,0,104,46.654,104,104     C360,313.346,313.346,360,256,360z M256,160c-52.935,0-96,43.065-96,96c0,52.936,43.065,96,96,96c52.935,0,96-43.064,96-96     C352,203.065,308.935,160,256,160z" stroke="black" stroke-width="20"/></g><g><path d="M256,430c-95.944,0-174-78.057-174-174c0-2.209,1.791-4,4-4s4,1.791,4,4c0,91.533,74.467,166,166,166     c2.209,0,4,1.791,4,4S258.209,430,256,430z" stroke="black" stroke-width="20"/></g><g><path d="M426,260c-2.209,0-4-1.791-4-4c0-91.533-74.467-166-166-166c-2.209,0-4-1.791-4-4s1.791-4,4-4     c95.944,0,174,78.056,174,174C430,258.209,428.209,260,426,260z" stroke="black" stroke-width="20"/></g><g><path d="M256,290c-18.748,0-34-15.252-34-34s15.252-34,34-34s34,15.252,34,34S274.748,290,256,290z M256,230     c-14.336,0-26,11.664-26,26c0,14.337,11.664,26,26,26c14.337,0,26-11.663,26-26C282,241.664,270.337,230,256,230z" stroke="black" stroke-width="20"/></g></g></g></svg>